<?xml version="1.0" standalone="no"?>
<!DOCTYPE svg PUBLIC "-//W3C//DTD SVG 20010904//EN"
 "http://www.w3.org/TR/2001/REC-SVG-20010904/DTD/svg10.dtd">
<svg version="1.0" xmlns="http://www.w3.org/2000/svg"
 width="512.000000pt" height="512.000000pt" viewBox="0 0 512.000000 512.000000"
 preserveAspectRatio="xMidYMid meet">
<metadata>
Created by potrace 1.14, written by Peter Selinger 2001-2017
</metadata>
<g transform="translate(0.000000,512.000000) scale(0.100000,-0.100000)"
fill="#000000" stroke="none">
<path d="M757 5065 c-121 -46 -204 -157 -243 -326 -10 -42 -12 -262 -4 -319
16 -102 21 -135 26 -152 3 -10 7 -30 10 -45 41 -231 249 -741 413 -1012 28
-46 51 -86 51 -88 0 -1 15 -22 33 -46 17 -24 39 -54 47 -67 8 -12 50 -67 93
-121 l79 -99 -44 -46 c-187 -199 -342 -516 -392 -799 -3 -16 -10 -53 -15 -82
-22 -115 -31 -357 -18 -484 40 -382 198 -668 482 -872 157 -113 411 -219 630
-263 11 -2 31 -6 45 -9 14 -2 41 -7 60 -10 19 -3 46 -8 60 -10 199 -39 718
-41 950 -4 106 16 124 20 140 24 8 2 26 6 40 9 218 38 495 156 662 281 272
204 419 472 464 843 6 52 6 338 0 359 -2 10 -8 49 -11 88 -4 38 -8 72 -10 75
-2 3 -6 23 -9 44 -36 227 -183 560 -314 716 -12 14 -27 32 -33 40 -7 8 -30 34
-52 57 l-40 42 47 58 c111 137 171 221 253 357 67 110 212 405 253 516 7 19
17 39 22 44 4 6 8 16 8 24 0 8 6 28 14 45 51 115 128 393 151 547 14 93 13
294 -2 365 -29 138 -97 241 -198 301 -57 33 -155 41 -231 18 -318 -94 -729
-553 -1025 -1144 -61 -123 -135 -292 -144 -330 -2 -8 -9 -28 -15 -45 -16 -42
-59 -189 -72 -248 -10 -48 -11 -49 -42 -43 -140 24 -497 25 -631 0 l-30 -5
-24 93 c-29 111 -109 349 -122 363 -5 5 -9 15 -9 22 0 22 -91 207 -187 378
-77 136 -160 261 -272 410 -97 128 -107 140 -221 255 -142 142 -288 246 -410
289 -55 20 -169 23 -213 6z"/>
</g>
</svg>
